<?xml version="1.0" encoding="utf-8"?>
<!-- Generator: Adobe Illustrator 18.1.0, SVG Export Plug-In . SVG Version: 6.00 Build 0)  -->
<svg version="1.1" id="Layer_1" xmlns="http://www.w3.org/2000/svg" xmlns:xlink="http://www.w3.org/1999/xlink" x="0px" y="0px"
	 viewBox="0 0 447 100" enable-background="new 0 0 447 100" xml:space="preserve">
<g>
	<g>
		<path fill="#004990" d="M175.9,30.9c0.4,0,0.8,0.1,1.2,0.3c0.4,0.2,0.7,0.5,0.9,0.9c0.2,0.4,0.3,0.8,0.3,1.2
			c0,0.4-0.1,0.8-0.3,1.2c-0.2,0.4-0.5,0.7-0.9,0.9c-0.4,0.2-0.8,0.3-1.2,0.3c-0.4,0-0.8-0.1-1.2-0.3c-0.4-0.2-0.7-0.5-0.9-0.9
			c-0.2-0.4-0.3-0.8-0.3-1.2c0-0.4,0.1-0.8,0.3-1.2c0.2-0.4,0.5-0.7,0.9-0.9C175.1,31,175.5,30.9,175.9,30.9z M176,31.4
			c-0.3,0-0.7,0.1-1,0.3c-0.3,0.2-0.6,0.4-0.7,0.7c-0.2,0.3-0.3,0.7-0.3,1c0,0.3,0.1,0.7,0.3,1c0.2,0.3,0.4,0.6,0.7,0.7
			c0.3,0.2,0.6,0.3,1,0.3c0.3,0,0.7-0.1,1-0.3c0.3-0.2,0.6-0.4,0.7-0.7c0.2-0.3,0.3-0.6,0.3-1c0-0.3-0.1-0.7-0.3-1
			c-0.2-0.3-0.4-0.6-0.7-0.7C176.6,31.4,176.3,31.4,176,31.4z M174.9,34.7l0-2.6l0.5,0c0.5,0,0.8,0,0.8,0c0.2,0,0.3,0,0.4,0.1
			c0.1,0.1,0.2,0.1,0.2,0.2c0.1,0.1,0.1,0.2,0.1,0.4c0,0.2-0.1,0.3-0.2,0.5c-0.1,0.1-0.3,0.2-0.5,0.3c0.1,0,0.1,0.1,0.2,0.1
			c0,0,0.1,0.1,0.2,0.2c0,0,0.1,0.1,0.2,0.3l0.3,0.5l-0.7,0l-0.2-0.4c-0.2-0.3-0.3-0.5-0.4-0.5c-0.1-0.1-0.2-0.1-0.4-0.1l-0.1,0
			l0,1.1L174.9,34.7z M175.4,33.2l0.2,0c0.3,0,0.5,0,0.6,0c0.1,0,0.1-0.1,0.2-0.1c0-0.1,0.1-0.1,0.1-0.2c0-0.1,0-0.1-0.1-0.2
			c0-0.1-0.1-0.1-0.2-0.1c-0.1,0-0.3,0-0.6,0l-0.2,0L175.4,33.2z"/>
	</g>
	<g>
		<path fill="#004990" d="M158.6,41.1c-0.1-0.2-0.1-0.4-0.1-0.6l0-2.9c0-1,1-1.8,2.2-1.8l5.3,0c1.2,0,2.2,0.8,2.2,1.7l0,2.9
			c0,0.2,0,0.4-0.1,0.5c-1.1-1.4-2.8-2.2-4.7-2.2C161.4,38.8,159.7,39.7,158.6,41.1L158.6,41.1z"/>
	</g>
	<g>
		<path fill="#004990" d="M149.8,48.3c1.1,0,1.2,2.4,1.2,3.1c0,0.7,0,3.1-1.1,3.1c-1.1,0-1.2-2.4-1.2-3.1
			C148.6,50.7,148.7,48.3,149.8,48.3"/>
	</g>
	<g>
		<path fill="#004990" d="M180.7,38l-3.5-0.1c-0.9,0-1.6,0.6-1.7,1.5l-0.3,0.8c-1.9-3.8-4.9-8.9-7.7-9.1c-0.6,0-14.3,0.1-14.3,0.1
			c-6.8,0.1-13.5,0.1-14.2,0.2c-3.9,0.3-8.3,10.9-9.1,12.9c-4.6,4.3-2.6,18-1.3,19.2c0,0,0.4,0,1.1,0l0,3.6c0,1.5,1.2,2.6,2.7,2.6
			l3.6,0c1.5,0,2.6-1.2,2.6-2.7l0-3.5c0,0,0,0,0,0l29.8-0.3l0,3.5c0,1.5,1.2,2.6,2.7,2.6l3.6,0c1.5,0,2.6-1.2,2.6-2.7l0-3.5
			c0.6,0,1,0,1.1,0c1.3-1.2,3.1-15-1.7-19.2c-0.1-0.2-0.2-0.5-0.4-0.8l3.9-0.2c0.9,0,1.6-0.6,1.6-1.5l0.1-1.7
			C182.3,38.7,181.6,38,180.7,38 M133.5,57.4c-2,0-3.6-1.6-3.6-3.6c0-2,1.6-3.6,3.6-3.6c2,0,3.6,1.6,3.6,3.6
			C137.1,55.8,135.5,57.4,133.5,57.4 M144.7,48.5c-0.3-0.3-0.6-0.4-0.9-0.4c-1.6,0-1.9,1.9-1.9,3.1c0,1.2,0.3,3.1,1.9,3.1
			c0.4,0,0.7-0.1,1-0.3l0,2.9c-0.6,0.3-1.2,0.4-1.9,0.4c-3.1,0-4.3-3.2-4.3-5.9c0-2.9,1.1-6.1,4.4-6.1c0.6,0,1.1,0.1,1.6,0.3
			L144.7,48.5z M149.8,57.3c-2.3,0-4.4-1.3-4.4-5.9c0-5,2.5-6,4.3-6c2.1,0,4.4,1.3,4.4,6C154.2,56,152,57.3,149.8,57.3 M168.1,56.9
			l-3.2,0l-0.1-6.2c0-0.6,0.1-2.3-0.8-2.3c-0.8,0-0.9,0.8-0.9,1.3l0.1,7.2l-3.2,0l-0.1-6.5c0-0.6,0.1-2-0.8-2
			c-0.8,0-0.9,0.7-0.9,1.3l0,0.7l0.1,6.5l-3.2,0L155,45.5l3.2,0l0,1.9l0,0c0.5-1.1,1.4-2.1,2.8-2.1c1.2,0,1.8,0.9,2,1.9l0,0
			c0.5-1,1.5-2,2.8-2c2.1,0,2.1,2.3,2.1,3.8L168.1,56.9z M167.4,42L167.4,42c-0.9-1.3-2.4-2.1-4.1-2.1c-1.5,0-2.8,0.7-3.7,1.7l0,0
			c-0.5,0-5.9-0.2-5.9-0.2c-1.9,0-3.9,0-6,0.1c0.1-0.2,0.2-0.5,0.2-0.7l0-2.9c0-1-1-1.7-2.2-1.7l-5.2,0c-1.2,0-2.2,0.8-2.2,1.8
			l0,2.9c0,0.5,0.2,0.9,0.6,1.2c-2.4,0.2-4.7,0.6-6.6,1c1.2-3.2,4.1-9.6,7.7-9.8c0.4,0,6.4-0.1,12.7-0.2l0,0.6l-2.3,0
			c-0.7,0-1.2,0.6-1.2,1.4c0,0.8,0.6,1.4,1.2,1.4l5.7-0.1c0.7,0,1.2-0.6,1.2-1.4c0-0.8-0.6-1.4-1.2-1.4l-2.3,0l0-0.6
			c2.6,0,12.5-0.1,12.8-0.1c3.7,0.1,6.7,6.5,7.9,9.7C173.2,42.5,167.8,42,167.4,42 M177,53.5c0,2-1.6,3.6-3.6,3.6
			c-2,0-3.6-1.6-3.6-3.6c0-2,1.6-3.6,3.6-3.6C175.4,50,177,51.5,177,53.5"/>
	</g>
	<g>
		<path fill="#BF2F38" d="M58.1,50.7l-2.6,0l0-0.4c0-0.8,0.2-2.3,1.3-2.3c1.1,0,1.3,1.5,1.3,2.3L58.1,50.7z M61.2,51.4
			c0.2-4-2-6.1-4.4-6.1c-3.7,0-4.8,3.9-4.8,6.9c0,3.2,1.3,6.3,5,6.3c2.6,0,3.7-1.9,4-4.2l-3,0c0,0.7-0.2,1.5-1.1,1.5
			c-1.4,0-1.3-2-1.4-2.9l5.6-0.1L61.2,51.4z"/>
	</g>
	<g>
		<path fill="#BF2F38" d="M67,55.2c-1.3,0-1.3-2.6-1.3-3.4c0-0.7,0-3.4,1.2-3.4c1.2,0,1.3,2.7,1.3,3.4C68.2,52.5,68.1,55.2,67,55.2
			 M68,58.2l3.6,0l-0.2-20.4l-3.6,0l0.1,9.2l0,0c-0.4-1-1.2-1.8-2.4-1.8c-3,0-3.4,4.4-3.4,6.6c0,2.1,0.6,6.6,3.5,6.6
			c1.1,0,1.8-0.7,2.3-1.7l0,0L68,58.2z"/>
	</g>
	<g>
		<path fill="#BF2F38" d="M76.2,47.4L76.2,47.4c0.6-1.2,1.7-2.3,3.2-2.3c1.3,0,2,1,2.2,2.2h0.1c0.6-1.1,1.7-2.2,3-2.2
			c2.3,0,2.3,2.5,2.3,4.2l0.1,8.8l-3.6,0l-0.1-6.9c0-0.7,0.2-2.5-0.9-2.5c-0.8,0-1,0.9-0.9,1.4l0.1,8l-3.6,0L78,51
			c0-0.6,0.2-2.2-0.9-2.2c-0.9,0-1,0.8-1,1.5l0,0.8l0.1,7.1l-3.6,0l-0.1-12.8l3.6,0L76.2,47.4z"/>
	</g>
	<g>
		<path fill="#BF2F38" d="M91.7,45.2l0.1,7c0,0.7-0.2,2.7,0.9,2.7c1,0,0.9-1.3,0.9-1.9l0-7.8l3.5,0l0.1,8.1c0,3-1.3,4.9-4.5,4.9
			c-4.1,0-4.4-3-4.4-5.3l-0.1-7.7L91.7,45.2z"/>
	</g>
	<g>
		<path fill="#BF2F38" d="M101.9,47.1L101.9,47.1c0.5-1.2,1.6-2.2,3-2.2c2.6,0,2.4,2.9,2.4,4.7l0.1,8.2l-3.6,0l-0.1-7
			c0-0.7,0.2-2.4-0.9-2.4c-0.8,0-1,0.8-0.9,1.5l0.1,8l-3.6,0l-0.1-12.8l3.6,0L101.9,47.1z"/>
	</g>
	<g>
		<path fill="#BF2F38" d="M113.1,54.8c-1.3,0-1.3-2.6-1.3-3.4c0-0.7,0-3.4,1.2-3.4c1.2,0,1.3,2.7,1.3,3.4
			C114.3,52,114.3,54.8,113.1,54.8 M114.1,57.8l3.6,0l-0.2-20.4l-3.6,0l0.1,9.2h0c-0.4-1-1.2-1.8-2.4-1.8c-3,0-3.4,4.4-3.4,6.6
			c0,2.1,0.6,6.6,3.5,6.6c1.1,0,1.9-0.7,2.3-1.7l0,0L114.1,57.8z"/>
	</g>
	<g>
		<path fill="#BF2F38" d="M124.8,48.4c-0.5-0.5-1-0.8-1.7-0.8c-0.6,0-1,0.4-1,0.9c0.1,1.5,4.1,1.2,4.1,5c0,2.5-1.4,4.5-4.1,4.5
			c-1.4,0-2.8-0.5-3.9-1.4l1.5-2.5c0.5,0.5,1.1,0.8,1.8,0.8c0.6,0,1-0.4,1-1.1c0-1.7-4.1-1.2-4.1-5.3c0-2.4,2-3.8,4.2-3.8
			c1.3,0,2.4,0.3,3.4,1.1L124.8,48.4z"/>
	</g>
	<g>
		<path fill="#BF2F38" d="M213.1,39.6c1.3,0,2.3,0.2,3.2,0.6c0.9,0.4,1.6,0.9,2.2,1.5c0.6,0.6,1,1.3,1.2,2.1
			c0.3,0.8,0.4,1.6,0.4,2.4c0,0.8-0.1,1.6-0.4,2.4c-0.3,0.8-0.7,1.5-1.2,2.1c-0.6,0.6-1.3,1.1-2.2,1.5c-0.9,0.4-2,0.6-3.2,0.6h-4.7
			v7.2H204V39.6H213.1z M211.9,49.1c0.5,0,1,0,1.5-0.1c0.5-0.1,0.9-0.2,1.2-0.4c0.4-0.2,0.6-0.5,0.9-0.9c0.2-0.4,0.3-0.9,0.3-1.6
			c0-0.6-0.1-1.2-0.3-1.6c-0.2-0.4-0.5-0.7-0.9-0.9c-0.4-0.2-0.8-0.4-1.2-0.4c-0.5-0.1-1-0.1-1.5-0.1h-3.4v6H211.9z"/>
	</g>
	<g>
		<path fill="#BF2F38" d="M226.3,45.1v2.7h0.1c0.2-0.5,0.4-0.9,0.8-1.3c0.3-0.4,0.7-0.7,1.1-1c0.4-0.3,0.9-0.5,1.3-0.6
			c0.5-0.1,1-0.2,1.5-0.2c0.3,0,0.6,0,0.9,0.1v3.7c-0.2,0-0.4-0.1-0.7-0.1c-0.3,0-0.5,0-0.8,0c-0.7,0-1.4,0.1-1.9,0.4
			c-0.5,0.2-0.9,0.6-1.2,1c-0.3,0.4-0.5,0.9-0.7,1.5c-0.1,0.6-0.2,1.2-0.2,1.8v6.6h-4V45.1H226.3z"/>
	</g>
	<g>
		<path fill="#BF2F38" d="M234.6,39.6h4v3.3h-4V39.6z M238.6,59.7h-4V45.1h4V59.7z"/>
	</g>
	<g>
		<path fill="#BF2F38" d="M247.7,47.8c-0.6,0-1.2,0.1-1.6,0.4c-0.4,0.3-0.8,0.7-1.1,1.1c-0.3,0.5-0.5,1-0.6,1.5
			c-0.1,0.6-0.2,1.1-0.2,1.7c0,0.5,0.1,1.1,0.2,1.6c0.1,0.5,0.3,1,0.6,1.5c0.3,0.4,0.6,0.8,1,1.1c0.4,0.3,1,0.4,1.6,0.4
			c1,0,1.7-0.3,2.2-0.8c0.5-0.5,0.8-1.3,1-2.2h3.9c-0.3,1.9-1,3.4-2.3,4.4c-1.2,1-2.8,1.5-4.8,1.5c-1.1,0-2.1-0.2-3-0.6
			c-0.9-0.4-1.7-0.9-2.3-1.5c-0.6-0.7-1.1-1.4-1.5-2.4c-0.4-0.9-0.5-1.9-0.5-3c0-1.1,0.2-2.2,0.5-3.2c0.3-1,0.8-1.8,1.5-2.5
			c0.6-0.7,1.4-1.3,2.3-1.7c0.9-0.4,2-0.6,3.2-0.6c0.9,0,1.7,0.1,2.5,0.3c0.8,0.2,1.5,0.6,2.1,1c0.6,0.5,1.1,1,1.5,1.7
			c0.4,0.7,0.6,1.5,0.7,2.4h-3.9C250.4,48.6,249.4,47.8,247.7,47.8"/>
	</g>
	<g>
		<path fill="#BF2F38" d="M261.2,56.2c0.6,0.6,1.5,0.9,2.6,0.9c0.8,0,1.5-0.2,2.1-0.6c0.6-0.4,0.9-0.8,1.1-1.3h3.5
			c-0.6,1.8-1.4,3-2.6,3.8s-2.6,1.1-4.2,1.1c-1.1,0-2.2-0.2-3.1-0.6c-0.9-0.4-1.7-0.9-2.3-1.6c-0.6-0.7-1.1-1.5-1.5-2.4
			c-0.3-0.9-0.5-2-0.5-3.1c0-1.1,0.2-2.1,0.5-3.1c0.4-0.9,0.9-1.8,1.5-2.4c0.7-0.7,1.4-1.2,2.4-1.6c0.9-0.4,1.9-0.6,3-0.6
			c1.2,0,2.3,0.2,3.2,0.7c0.9,0.5,1.7,1.1,2.3,1.9c0.6,0.8,1,1.7,1.3,2.8c0.3,1,0.4,2.1,0.3,3.2h-10.5
			C260.3,54.7,260.6,55.6,261.2,56.2 M265.8,48.5c-0.5-0.5-1.2-0.8-2.2-0.8c-0.6,0-1.2,0.1-1.6,0.3c-0.4,0.2-0.8,0.5-1,0.8
			c-0.3,0.3-0.4,0.7-0.5,1c-0.1,0.4-0.2,0.7-0.2,1h6.5C266.6,49.8,266.3,49.1,265.8,48.5"/>
	</g>
	<g>
		<path fill="#004990" d="M290.5,39.6c1.3,0,2.3,0.2,3.2,0.6c0.9,0.4,1.6,0.9,2.2,1.5c0.6,0.6,1,1.3,1.2,2.1
			c0.3,0.8,0.4,1.6,0.4,2.4c0,0.8-0.1,1.6-0.4,2.4c-0.3,0.8-0.7,1.5-1.2,2.1c-0.6,0.6-1.3,1.1-2.2,1.5c-0.9,0.4-2,0.6-3.2,0.6h-4.7
			v7.2h-4.4V39.6H290.5z M289.3,49.1c0.5,0,1,0,1.5-0.1c0.5-0.1,0.9-0.2,1.2-0.4c0.4-0.2,0.6-0.5,0.9-0.9c0.2-0.4,0.3-0.9,0.3-1.6
			c0-0.6-0.1-1.2-0.3-1.6c-0.2-0.4-0.5-0.7-0.9-0.9c-0.4-0.2-0.8-0.4-1.2-0.4c-0.5-0.1-1-0.1-1.5-0.1h-3.4v6H289.3z"/>
	</g>
	<g>
		<path fill="#004990" d="M303.7,45.1v2.7h0.1c0.2-0.5,0.4-0.9,0.8-1.3c0.3-0.4,0.7-0.7,1.1-1c0.4-0.3,0.9-0.5,1.3-0.6
			c0.5-0.1,1-0.2,1.5-0.2c0.3,0,0.6,0,0.9,0.1v3.7c-0.2,0-0.4-0.1-0.7-0.1c-0.3,0-0.5,0-0.8,0c-0.7,0-1.4,0.1-1.9,0.4
			c-0.5,0.2-0.9,0.6-1.2,1c-0.3,0.4-0.5,0.9-0.7,1.5c-0.1,0.6-0.2,1.2-0.2,1.8v6.6h-4V45.1H303.7z"/>
	</g>
	<g>
		<path fill="#004990" d="M310.4,49.3c0.4-1,0.9-1.8,1.5-2.4c0.7-0.7,1.4-1.2,2.4-1.6c0.9-0.4,2-0.5,3.1-0.5c1.1,0,2.2,0.2,3.1,0.5
			c0.9,0.4,1.7,0.9,2.4,1.6c0.7,0.7,1.2,1.5,1.5,2.4c0.4,1,0.5,2,0.5,3.2c0,1.2-0.2,2.2-0.5,3.2c-0.4,0.9-0.9,1.7-1.5,2.4
			c-0.7,0.7-1.5,1.2-2.4,1.5c-0.9,0.4-2,0.5-3.1,0.5c-1.1,0-2.2-0.2-3.1-0.5c-0.9-0.4-1.7-0.9-2.4-1.5c-0.7-0.7-1.2-1.5-1.5-2.4
			c-0.4-0.9-0.5-2-0.5-3.2C309.9,51.3,310.1,50.2,310.4,49.3 M314.1,54.2c0.1,0.6,0.3,1.1,0.6,1.5c0.3,0.4,0.6,0.8,1.1,1.1
			c0.5,0.3,1,0.4,1.7,0.4s1.2-0.1,1.7-0.4c0.5-0.3,0.8-0.6,1.1-1.1c0.3-0.4,0.5-0.9,0.6-1.5c0.1-0.6,0.2-1.1,0.2-1.7
			c0-0.6-0.1-1.2-0.2-1.7c-0.1-0.6-0.3-1.1-0.6-1.5c-0.3-0.4-0.6-0.8-1.1-1.1c-0.5-0.3-1-0.4-1.7-0.4s-1.2,0.1-1.7,0.4
			c-0.5,0.3-0.8,0.6-1.1,1.1c-0.3,0.4-0.5,0.9-0.6,1.5c-0.1,0.6-0.2,1.1-0.2,1.7C313.9,53,314,53.6,314.1,54.2"/>
	</g>
	<g>
		<path fill="#004990" d="M331.5,45.1v2h0.1c0.5-0.8,1.2-1.3,1.9-1.8c0.7-0.4,1.6-0.6,2.6-0.6c0.9,0,1.8,0.2,2.5,0.5
			c0.8,0.4,1.3,1,1.7,1.9c0.4-0.6,1-1.2,1.8-1.7c0.7-0.5,1.6-0.7,2.6-0.7c0.8,0,1.5,0.1,2.1,0.3c0.7,0.2,1.2,0.5,1.7,0.9
			c0.5,0.4,0.8,1,1.1,1.6c0.3,0.7,0.4,1.5,0.4,2.4v9.8h-4v-8.3c0-0.5,0-1-0.1-1.4c0-0.4-0.1-0.8-0.3-1.1c-0.2-0.3-0.4-0.6-0.7-0.8
			c-0.3-0.2-0.8-0.3-1.3-0.3c-0.6,0-1,0.1-1.4,0.3c-0.3,0.2-0.6,0.5-0.8,0.8c-0.2,0.3-0.3,0.7-0.4,1.2c-0.1,0.4-0.1,0.9-0.1,1.3v8.1
			h-4v-8.2c0-0.4,0-0.9,0-1.3c0-0.4-0.1-0.8-0.2-1.2c-0.1-0.4-0.4-0.6-0.7-0.9c-0.3-0.2-0.8-0.3-1.5-0.3c-0.2,0-0.4,0-0.7,0.1
			c-0.3,0.1-0.6,0.2-0.9,0.5c-0.3,0.2-0.5,0.6-0.7,1c-0.2,0.4-0.3,1-0.3,1.7v8.5h-4V45.1H331.5z"/>
	</g>
	<g>
		<path fill="#004990" d="M353.3,39.6h4v3.3h-4V39.6z M357.3,59.7h-4V45.1h4V59.7z"/>
	</g>
	<g>
		<path fill="#004990" d="M363.9,56.1c0.2,0.3,0.4,0.6,0.7,0.8c0.3,0.2,0.6,0.3,1,0.4c0.4,0.1,0.7,0.1,1.1,0.1c0.3,0,0.6,0,0.9-0.1
			c0.3-0.1,0.6-0.2,0.8-0.3c0.3-0.1,0.5-0.3,0.6-0.6c0.2-0.2,0.3-0.5,0.3-0.9c0-0.6-0.4-1.1-1.2-1.4c-0.8-0.3-1.9-0.6-3.3-0.9
			c-0.6-0.1-1.2-0.3-1.7-0.5c-0.6-0.2-1.1-0.4-1.5-0.7c-0.4-0.3-0.8-0.7-1-1.1c-0.3-0.4-0.4-1-0.4-1.6c0-0.9,0.2-1.7,0.6-2.3
			c0.4-0.6,0.9-1.1,1.5-1.4c0.6-0.3,1.3-0.6,2-0.7c0.8-0.1,1.5-0.2,2.3-0.2c0.8,0,1.6,0.1,2.3,0.2c0.7,0.1,1.4,0.4,2,0.8
			c0.6,0.4,1.1,0.8,1.5,1.4c0.4,0.6,0.6,1.3,0.7,2.2h-3.8c-0.1-0.8-0.3-1.3-0.9-1.6c-0.5-0.3-1.1-0.4-1.9-0.4c-0.2,0-0.5,0-0.7,0
			c-0.3,0-0.5,0.1-0.7,0.2c-0.2,0.1-0.4,0.2-0.6,0.4c-0.2,0.2-0.2,0.4-0.2,0.7c0,0.4,0.1,0.6,0.4,0.9c0.3,0.2,0.6,0.4,1,0.6
			c0.4,0.1,0.9,0.3,1.5,0.4c0.5,0.1,1.1,0.2,1.7,0.4c0.6,0.1,1.2,0.3,1.7,0.5c0.6,0.2,1,0.4,1.5,0.7c0.4,0.3,0.8,0.7,1,1.2
			c0.3,0.5,0.4,1,0.4,1.7c0,1-0.2,1.8-0.6,2.4c-0.4,0.7-0.9,1.2-1.5,1.6c-0.6,0.4-1.3,0.7-2.1,0.8c-0.8,0.2-1.6,0.2-2.4,0.2
			c-0.8,0-1.7-0.1-2.5-0.3c-0.8-0.2-1.5-0.5-2.2-0.8c-0.6-0.4-1.2-0.9-1.6-1.6c-0.4-0.6-0.6-1.5-0.7-2.4h3.8
			C363.6,55.4,363.7,55.8,363.9,56.1"/>
	</g>
	<g>
		<path fill="#004990" d="M380,56.2c0.6,0.6,1.5,0.9,2.6,0.9c0.8,0,1.5-0.2,2.1-0.6c0.6-0.4,0.9-0.8,1.1-1.3h3.5
			c-0.6,1.8-1.4,3-2.6,3.8c-1.2,0.8-2.6,1.1-4.2,1.1c-1.1,0-2.2-0.2-3.1-0.6c-0.9-0.4-1.7-0.9-2.3-1.6c-0.6-0.7-1.1-1.5-1.5-2.4
			c-0.3-0.9-0.5-2-0.5-3.1c0-1.1,0.2-2.1,0.5-3.1c0.4-0.9,0.9-1.8,1.5-2.4c0.7-0.7,1.4-1.2,2.4-1.6c0.9-0.4,1.9-0.6,3-0.6
			c1.2,0,2.3,0.2,3.2,0.7c0.9,0.5,1.7,1.1,2.3,1.9c0.6,0.8,1,1.7,1.3,2.8c0.3,1,0.4,2.1,0.3,3.2H379C379,54.7,379.4,55.6,380,56.2
			 M384.5,48.5c-0.5-0.5-1.2-0.8-2.2-0.8c-0.6,0-1.2,0.1-1.6,0.3c-0.4,0.2-0.8,0.5-1,0.8c-0.3,0.3-0.4,0.7-0.5,1
			c-0.1,0.4-0.2,0.7-0.2,1h6.5C385.3,49.8,385,49.1,384.5,48.5"/>
	</g>
	<g>
		<rect x="192.1" y="30.3" fill="#004990" width="2" height="38.6"/>
	</g>
	<g>
		<path fill="#004990" d="M387.7,42.7c0-1.7,1.4-3.1,3.1-3.1c1.7,0,3.1,1.4,3.1,3.1c0,1.7-1.4,3.1-3.1,3.1
			C389.1,45.8,387.7,44.4,387.7,42.7z M393.1,42.7c0-1.4-1-2.4-2.3-2.4c-1.3,0-2.3,1-2.3,2.4c0,1.4,0.9,2.4,2.3,2.4
			C392.1,45.1,393.1,44.1,393.1,42.7z M392.4,44.4h-0.8l-0.7-1.4h-0.6v1.4h-0.7v-3.3h1.6c0.9,0,1.3,0.2,1.3,1c0,0.6-0.3,0.9-0.9,0.9
			L392.4,44.4z M391.2,42.5c0.4,0,0.6-0.1,0.6-0.5c0-0.4-0.5-0.4-0.8-0.4h-0.8v0.9H391.2z"/>
	</g>
</g>
</svg>
