<?xml version="1.0" encoding="utf-8"?>
<!-- Generator: Adobe Illustrator 18.1.0, SVG Export Plug-In . SVG Version: 6.00 Build 0)  -->
<svg version="1.1" id="Layer_1" xmlns="http://www.w3.org/2000/svg" xmlns:xlink="http://www.w3.org/1999/xlink" x="0px" y="0px"
	 viewBox="0 0 230 25.8" enable-background="new 0 0 230 25.8" xml:space="preserve">
<g>
	
		<text transform="matrix(1 -9.360000e-03 9.360000e-03 1 79.6392 3.5382)" fill="#124B8E" font-family="'Arial-BoldMT'" font-size="4.3078">®</text>
	<path fill="#124B8E" d="M69.8,7c0-0.1-0.1-0.2-0.1-0.4l0-1.9c0-0.6,0.6-1.2,1.4-1.2l3.5,0c0.8,0,1.4,0.5,1.5,1.1l0,1.9
		c0,0.1,0,0.2-0.1,0.4c-0.7-0.9-1.9-1.4-3.1-1.4C71.6,5.6,70.5,6.1,69.8,7L69.8,7z"/>
	<path fill="#124B8E" d="M64,11.7c0.7,0,0.8,1.6,0.8,2c0,0.4,0,2-0.7,2c-0.7,0-0.8-1.6-0.8-2C63.3,13.3,63.3,11.8,64,11.7"/>
	<path fill="#124B8E" d="M84.3,5L82,4.9c-0.6,0-1.1,0.4-1.1,1l-0.2,0.5c-1.2-2.5-3.2-5.8-5-5.9c-0.4,0-9.3,0.1-9.3,0.1
		c-4.4,0-8.9,0.1-9.3,0.1c-2.5,0.2-5.4,7.1-6,8.5c-3,2.8-1.7,11.8-0.8,12.6c0,0,0.3,0,0.7,0l0,2.3c0,1,0.8,1.7,1.7,1.7l2.4,0
		c1,0,1.7-0.8,1.7-1.7l0-2.3c0,0,0,0,0,0l19.5-0.2l0,2.3c0,1,0.8,1.7,1.7,1.7l2.4,0c1,0,1.7-0.8,1.7-1.8l0-2.3c0.4,0,0.7,0,0.7,0
		c0.9-0.8,2-9.8-1.1-12.6c-0.1-0.1-0.1-0.3-0.2-0.5l2.5-0.1c0.6,0,1.1-0.4,1.1-1l0-1.1C85.3,5.5,84.9,5,84.3,5 M53.4,17.7
		c-1.3,0-2.4-1-2.4-2.3c0-1.3,1-2.4,2.3-2.4c1.3,0,2.4,1,2.4,2.3C55.7,16.7,54.7,17.7,53.4,17.7 M60.7,11.9
		c-0.2-0.2-0.4-0.2-0.6-0.2c-1,0-1.2,1.3-1.2,2c0,0.8,0.2,2,1.2,2c0.2,0,0.4-0.1,0.6-0.2l0,1.9c-0.4,0.2-0.8,0.3-1.2,0.3
		c-2,0-2.8-2.1-2.8-3.8c0-1.9,0.7-4,2.9-4c0.4,0,0.7,0.1,1.1,0.2L60.7,11.9z M64,17.7c-1.5,0-2.9-0.9-2.9-3.9c0-3.3,1.6-3.9,2.8-4
		c1.4,0,2.9,0.9,2.9,3.9C66.9,16.8,65.5,17.6,64,17.7 M76,17.4l-2.1,0l0-4.1c0-0.4,0.1-1.5-0.5-1.5c-0.5,0-0.6,0.5-0.6,0.9l0,4.7
		l-2.1,0l0-4.2c0-0.4,0.1-1.3-0.5-1.3c-0.5,0-0.6,0.5-0.6,0.9l0,0.5l0,4.2l-2.1,0l-0.1-7.5l2.1,0l0,1.2l0,0c0.4-0.7,0.9-1.4,1.8-1.4
		c0.8,0,1.2,0.6,1.3,1.3l0,0c0.3-0.7,1-1.3,1.8-1.3c1.4,0,1.4,1.5,1.4,2.5L76,17.4z M75.5,7.6L75.5,7.6C75,6.8,74,6.3,72.9,6.3
		c-1,0-1.8,0.4-2.4,1.1l0,0c-0.3,0-3.9-0.1-3.9-0.1c-1.2,0-2.6,0-3.9,0.1c0.1-0.1,0.1-0.3,0.1-0.5l0-1.9c0-0.6-0.6-1.1-1.4-1.1
		l-3.4,0c-0.8,0-1.4,0.5-1.4,1.2l0,1.9c0,0.3,0.2,0.6,0.4,0.8c-1.6,0.2-3.1,0.4-4.3,0.6c0.8-2.1,2.7-6.3,5.1-6.4
		c0.2,0,4.2-0.1,8.3-0.1l0,0.4l-1.5,0c-0.4,0-0.8,0.4-0.8,0.9c0,0.5,0.4,0.9,0.8,0.9l3.8,0c0.4,0,0.8-0.4,0.8-0.9
		c0-0.5-0.4-0.9-0.8-0.9l-1.5,0l0-0.4c1.7,0,8.2-0.1,8.4-0.1c2.4,0.1,4.4,4.3,5.2,6.3C79.4,8,75.9,7.7,75.5,7.6 M81.9,15.2
		c0,1.3-1,2.4-2.3,2.4c-1.3,0-2.4-1-2.4-2.3c0-1.3,1-2.4,2.3-2.4C80.8,12.8,81.9,13.9,81.9,15.2"/>
	<path fill="#C03039" d="M4,13.3l-1.7,0l0-0.2c0-0.5,0.1-1.5,0.8-1.5c0.7,0,0.9,1,0.9,1.5L4,13.3z M6,13.8c0.1-2.6-1.3-4-2.9-4
		C0.7,9.8,0,12.4,0,14.4c0,2.1,0.9,4.2,3.3,4.1c1.7,0,2.4-1.2,2.6-2.8l-2,0c0,0.5-0.1,1-0.7,1c-0.9,0-0.9-1.3-0.9-1.9l3.7,0L6,13.8z
		"/>
	<path fill="#C03039" d="M9.7,16.3c-0.8,0-0.9-1.7-0.9-2.3c0-0.5,0-2.2,0.8-2.2c0.8,0,0.9,1.8,0.9,2.2C10.5,14.5,10.5,16.3,9.7,16.3
		 M10.4,18.3l2.3,0L12.6,4.9l-2.3,0l0.1,6l0,0C10,10.3,9.5,9.7,8.7,9.8c-2,0-2.2,2.9-2.2,4.4c0,1.3,0.4,4.4,2.3,4.3
		c0.7,0,1.2-0.5,1.5-1.1l0,0L10.4,18.3z"/>
	<path fill="#C03039" d="M15.8,11.2L15.8,11.2c0.4-0.8,1.1-1.5,2.1-1.5c0.9,0,1.3,0.6,1.5,1.4h0c0.4-0.8,1.1-1.4,2-1.4
		c1.5,0,1.5,1.7,1.5,2.7l0.1,5.8l-2.3,0l0-4.5c0-0.4,0.1-1.7-0.6-1.6c-0.5,0-0.6,0.6-0.6,0.9l0,5.2l-2.3,0l0-4.7
		c0-0.4,0.1-1.5-0.6-1.5c-0.6,0-0.7,0.5-0.7,1l0,0.5l0,4.7l-2.3,0l-0.1-8.4l2.3,0L15.8,11.2z"/>
	<path fill="#C03039" d="M25.9,9.8l0,4.6c0,0.5-0.2,1.8,0.6,1.7c0.6,0,0.6-0.8,0.6-1.2l0-5.1l2.3,0l0,5.3c0,1.9-0.9,3.2-3,3.2
		c-2.7,0-2.9-2-2.9-3.5l0-5L25.9,9.8z"/>
	<path fill="#C03039" d="M32.6,11L32.6,11c0.3-0.8,1-1.5,2-1.5c1.7,0,1.6,1.9,1.6,3.1l0.1,5.4l-2.3,0l0-4.6c0-0.4,0.1-1.6-0.6-1.6
		c-0.5,0-0.6,0.6-0.6,1l0,5.2l-2.3,0l-0.1-8.4l2.3,0L32.6,11z"/>
	<path fill="#C03039" d="M40,16c-0.8,0-0.9-1.7-0.9-2.3c0-0.5,0-2.2,0.8-2.2c0.8,0,0.9,1.8,0.9,2.2C40.8,14.2,40.7,16,40,16
		 M40.7,18l2.3,0L42.9,4.6l-2.3,0l0.1,6h0C40.3,10,39.8,9.5,39,9.5c-2,0-2.2,2.9-2.2,4.4c0,1.3,0.4,4.4,2.3,4.3
		c0.7,0,1.2-0.5,1.5-1.1l0,0L40.7,18z"/>
	<path fill="#C03039" d="M47.6,11.8c-0.3-0.3-0.7-0.5-1.1-0.5c-0.4,0-0.6,0.3-0.6,0.6c0,1,2.7,0.8,2.7,3.3c0,1.7-0.9,2.9-2.7,2.9
		c-0.9,0-1.8-0.4-2.5-0.9l1-1.7c0.3,0.3,0.7,0.5,1.2,0.5c0.4,0,0.7-0.3,0.7-0.7c0-1.1-2.7-0.8-2.7-3.5c0-1.6,1.3-2.5,2.8-2.5
		c0.8,0,1.6,0.2,2.2,0.7L47.6,11.8z"/>
	<rect x="91.8" y="0" fill="#124B8E" width="1.3" height="25.3"/>
	<g>
		<g>
			<path fill="#C03039" d="M105.5,6.4c0.8,0,1.5,0.1,2.1,0.4c0.6,0.2,1.1,0.6,1.4,1c0.4,0.4,0.6,0.8,0.8,1.4c0.2,0.5,0.2,1,0.2,1.6
				c0,0.5-0.1,1.1-0.2,1.6c-0.2,0.5-0.4,1-0.8,1.4c-0.4,0.4-0.8,0.7-1.4,1c-0.6,0.2-1.3,0.4-2.1,0.4h-3.1v4.7h-2.9V6.4H105.5z
				 M104.8,12.6c0.3,0,0.7,0,1-0.1c0.3,0,0.6-0.1,0.8-0.3c0.2-0.1,0.4-0.3,0.6-0.6c0.1-0.3,0.2-0.6,0.2-1c0-0.4-0.1-0.8-0.2-1
				c-0.1-0.3-0.3-0.5-0.6-0.6c-0.2-0.1-0.5-0.2-0.8-0.3c-0.3,0-0.6-0.1-1-0.1h-2.3v4H104.8z"/>
			<path fill="#C03039" d="M114.2,10v1.8h0c0.1-0.3,0.3-0.6,0.5-0.8c0.2-0.3,0.4-0.5,0.7-0.6c0.3-0.2,0.6-0.3,0.9-0.4
				c0.3-0.1,0.6-0.1,1-0.1c0.2,0,0.4,0,0.6,0.1v2.4c-0.1,0-0.3,0-0.4-0.1c-0.2,0-0.3,0-0.5,0c-0.5,0-0.9,0.1-1.2,0.2
				c-0.3,0.2-0.6,0.4-0.8,0.7c-0.2,0.3-0.3,0.6-0.4,1c-0.1,0.4-0.1,0.8-0.1,1.2v4.3h-2.6V10H114.2z"/>
			<path fill="#C03039" d="M119.6,6.4h2.6v2.2h-2.6V6.4z M122.2,19.6h-2.6V10h2.6V19.6z"/>
			<path fill="#C03039" d="M128.2,11.7c-0.4,0-0.8,0.1-1.1,0.3c-0.3,0.2-0.5,0.4-0.7,0.7c-0.2,0.3-0.3,0.6-0.4,1
				c-0.1,0.4-0.1,0.7-0.1,1.1c0,0.3,0,0.7,0.1,1.1s0.2,0.7,0.4,1c0.2,0.3,0.4,0.5,0.7,0.7c0.3,0.2,0.6,0.3,1,0.3
				c0.6,0,1.1-0.2,1.5-0.5c0.3-0.4,0.6-0.8,0.6-1.4h2.5c-0.2,1.3-0.7,2.2-1.5,2.9c-0.8,0.7-1.9,1-3.1,1c-0.7,0-1.4-0.1-2-0.4
				c-0.6-0.2-1.1-0.6-1.5-1c-0.4-0.4-0.7-0.9-1-1.5c-0.2-0.6-0.4-1.3-0.4-2c0-0.7,0.1-1.4,0.3-2.1c0.2-0.6,0.5-1.2,1-1.6
				c0.4-0.5,0.9-0.8,1.5-1.1c0.6-0.3,1.3-0.4,2.1-0.4c0.6,0,1.1,0.1,1.6,0.2c0.5,0.1,1,0.4,1.4,0.7c0.4,0.3,0.7,0.7,1,1.1
				c0.3,0.5,0.4,1,0.4,1.6h-2.6C130,12.3,129.3,11.7,128.2,11.7"/>
			<path fill="#C03039" d="M137.1,17.3c0.4,0.4,1,0.6,1.7,0.6c0.5,0,1-0.1,1.4-0.4c0.4-0.3,0.6-0.5,0.7-0.8h2.3
				c-0.4,1.1-0.9,2-1.7,2.5c-0.8,0.5-1.7,0.7-2.8,0.7c-0.8,0-1.4-0.1-2-0.4c-0.6-0.2-1.1-0.6-1.5-1c-0.4-0.4-0.7-1-1-1.6
				c-0.2-0.6-0.3-1.3-0.3-2c0-0.7,0.1-1.4,0.4-2c0.2-0.6,0.6-1.2,1-1.6c0.4-0.4,0.9-0.8,1.5-1.1c0.6-0.3,1.3-0.4,2-0.4
				c0.8,0,1.5,0.2,2.1,0.5c0.6,0.3,1.1,0.7,1.5,1.3c0.4,0.5,0.7,1.1,0.8,1.8c0.2,0.7,0.2,1.4,0.2,2.1h-6.9
				C136.5,16.3,136.7,16.9,137.1,17.3 M140.1,12.3c-0.3-0.3-0.8-0.5-1.4-0.5c-0.4,0-0.8,0.1-1,0.2c-0.3,0.1-0.5,0.3-0.7,0.5
				c-0.2,0.2-0.3,0.4-0.4,0.7c-0.1,0.2-0.1,0.4-0.1,0.6h4.3C140.6,13.1,140.4,12.6,140.1,12.3"/>
			<path fill="#124B8E" d="M156.3,6.4c0.8,0,1.5,0.1,2.1,0.4c0.6,0.2,1.1,0.6,1.4,1c0.4,0.4,0.6,0.8,0.8,1.4c0.2,0.5,0.3,1,0.3,1.6
				c0,0.5-0.1,1.1-0.3,1.6c-0.2,0.5-0.4,1-0.8,1.4c-0.4,0.4-0.8,0.7-1.4,1c-0.6,0.2-1.3,0.4-2.1,0.4h-3.1v4.7h-2.9V6.4H156.3z
				 M155.5,12.6c0.3,0,0.7,0,1-0.1c0.3,0,0.6-0.1,0.8-0.3c0.2-0.1,0.4-0.3,0.6-0.6c0.1-0.3,0.2-0.6,0.2-1c0-0.4-0.1-0.8-0.2-1
				c-0.1-0.3-0.3-0.5-0.6-0.6c-0.2-0.1-0.5-0.2-0.8-0.3c-0.3,0-0.6-0.1-1-0.1h-2.3v4H155.5z"/>
			<path fill="#124B8E" d="M164.9,10v1.8h0c0.1-0.3,0.3-0.6,0.5-0.8c0.2-0.3,0.5-0.5,0.7-0.6c0.3-0.2,0.6-0.3,0.9-0.4
				c0.3-0.1,0.6-0.1,1-0.1c0.2,0,0.4,0,0.6,0.1v2.4c-0.1,0-0.3,0-0.4-0.1c-0.2,0-0.3,0-0.5,0c-0.5,0-0.9,0.1-1.2,0.2
				c-0.3,0.2-0.6,0.4-0.8,0.7c-0.2,0.3-0.3,0.6-0.4,1c-0.1,0.4-0.1,0.8-0.1,1.2v4.3h-2.6V10H164.9z"/>
			<path fill="#124B8E" d="M169.4,12.7c0.2-0.6,0.6-1.2,1-1.6c0.4-0.4,1-0.8,1.6-1c0.6-0.2,1.3-0.4,2-0.4c0.8,0,1.4,0.1,2,0.4
				c0.6,0.2,1.1,0.6,1.6,1c0.4,0.4,0.8,1,1,1.6c0.2,0.6,0.4,1.3,0.4,2.1c0,0.8-0.1,1.5-0.4,2.1c-0.2,0.6-0.6,1.1-1,1.6
				c-0.4,0.4-1,0.8-1.6,1c-0.6,0.2-1.3,0.4-2,0.4c-0.8,0-1.4-0.1-2-0.4c-0.6-0.2-1.1-0.6-1.6-1c-0.4-0.4-0.8-1-1-1.6
				c-0.2-0.6-0.4-1.3-0.4-2.1C169,14.1,169.1,13.4,169.4,12.7 M171.7,15.9c0.1,0.4,0.2,0.7,0.4,1c0.2,0.3,0.4,0.5,0.7,0.7
				c0.3,0.2,0.7,0.3,1.1,0.3c0.4,0,0.8-0.1,1.1-0.3c0.3-0.2,0.5-0.4,0.7-0.7c0.2-0.3,0.3-0.6,0.4-1c0.1-0.4,0.1-0.7,0.1-1.1
				c0-0.4,0-0.8-0.1-1.1c-0.1-0.4-0.2-0.7-0.4-1c-0.2-0.3-0.4-0.5-0.7-0.7c-0.3-0.2-0.7-0.3-1.1-0.3c-0.4,0-0.8,0.1-1.1,0.3
				c-0.3,0.2-0.5,0.4-0.7,0.7c-0.2,0.3-0.3,0.6-0.4,1c-0.1,0.4-0.1,0.7-0.1,1.1C171.6,15.2,171.7,15.6,171.7,15.9"/>
			<path fill="#124B8E" d="M183.2,10v1.3h0c0.3-0.5,0.8-0.9,1.3-1.1c0.5-0.3,1-0.4,1.7-0.4c0.6,0,1.2,0.1,1.7,0.4
				c0.5,0.2,0.9,0.6,1.1,1.2c0.3-0.4,0.7-0.8,1.2-1.1c0.5-0.3,1.1-0.5,1.7-0.5c0.5,0,1,0.1,1.4,0.2c0.4,0.1,0.8,0.3,1.1,0.6
				c0.3,0.3,0.5,0.6,0.7,1.1c0.2,0.4,0.3,1,0.3,1.6v6.4h-2.6v-5.4c0-0.3,0-0.6,0-0.9c0-0.3-0.1-0.5-0.2-0.7
				c-0.1-0.2-0.3-0.4-0.5-0.5c-0.2-0.1-0.5-0.2-0.9-0.2c-0.4,0-0.7,0.1-0.9,0.2c-0.2,0.1-0.4,0.3-0.5,0.6c-0.1,0.2-0.2,0.5-0.3,0.8
				c0,0.3-0.1,0.6-0.1,0.9v5.3h-2.6v-5.4c0-0.3,0-0.6,0-0.8c0-0.3-0.1-0.5-0.2-0.8c-0.1-0.2-0.2-0.4-0.5-0.6c-0.2-0.1-0.5-0.2-1-0.2
				c-0.1,0-0.3,0-0.5,0.1c-0.2,0.1-0.4,0.2-0.6,0.3c-0.2,0.2-0.4,0.4-0.5,0.7c-0.1,0.3-0.2,0.7-0.2,1.1v5.6h-2.6V10H183.2z"/>
			<path fill="#124B8E" d="M197.5,6.4h2.6v2.2h-2.6V6.4z M200.1,19.6h-2.6V10h2.6V19.6z"/>
			<path fill="#124B8E" d="M204.4,17.2c0.1,0.2,0.3,0.4,0.5,0.5c0.2,0.1,0.4,0.2,0.6,0.3c0.2,0.1,0.5,0.1,0.8,0.1
				c0.2,0,0.4,0,0.6-0.1c0.2,0,0.4-0.1,0.6-0.2c0.2-0.1,0.3-0.2,0.4-0.4c0.1-0.2,0.2-0.3,0.2-0.6c0-0.4-0.3-0.7-0.8-0.9
				c-0.5-0.2-1.3-0.4-2.2-0.6c-0.4-0.1-0.8-0.2-1.1-0.3c-0.4-0.1-0.7-0.3-1-0.5c-0.3-0.2-0.5-0.4-0.7-0.7c-0.2-0.3-0.3-0.6-0.3-1.1
				c0-0.6,0.1-1.1,0.4-1.5c0.2-0.4,0.6-0.7,1-0.9c0.4-0.2,0.8-0.4,1.3-0.5c0.5-0.1,1-0.1,1.5-0.1c0.5,0,1,0.1,1.5,0.1
				c0.5,0.1,0.9,0.3,1.3,0.5c0.4,0.2,0.7,0.5,1,0.9c0.3,0.4,0.4,0.9,0.5,1.5h-2.5c0-0.5-0.2-0.8-0.6-1c-0.3-0.2-0.8-0.3-1.2-0.3
				c-0.1,0-0.3,0-0.5,0c-0.2,0-0.3,0.1-0.5,0.1c-0.1,0.1-0.3,0.2-0.4,0.3c-0.1,0.1-0.1,0.3-0.1,0.5c0,0.2,0.1,0.4,0.3,0.6
				c0.2,0.1,0.4,0.3,0.7,0.4c0.3,0.1,0.6,0.2,1,0.3c0.4,0.1,0.7,0.2,1.1,0.2c0.4,0.1,0.8,0.2,1.1,0.3c0.4,0.1,0.7,0.3,1,0.5
				c0.3,0.2,0.5,0.5,0.7,0.8c0.2,0.3,0.3,0.7,0.3,1.1c0,0.6-0.1,1.2-0.4,1.6c-0.3,0.4-0.6,0.8-1,1c-0.4,0.3-0.9,0.4-1.4,0.5
				c-0.5,0.1-1.1,0.2-1.6,0.2c-0.6,0-1.1-0.1-1.6-0.2c-0.5-0.1-1-0.3-1.4-0.6c-0.4-0.3-0.8-0.6-1-1c-0.3-0.4-0.4-1-0.4-1.6h2.5
				C204.2,16.8,204.3,17,204.4,17.2"/>
			<path fill="#124B8E" d="M215,17.3c0.4,0.4,1,0.6,1.7,0.6c0.5,0,1-0.1,1.4-0.4c0.4-0.3,0.6-0.5,0.7-0.8h2.3
				c-0.4,1.1-0.9,2-1.7,2.5c-0.8,0.5-1.7,0.7-2.8,0.7c-0.8,0-1.4-0.1-2-0.4c-0.6-0.2-1.1-0.6-1.5-1c-0.4-0.4-0.7-1-1-1.6
				c-0.2-0.6-0.3-1.3-0.3-2c0-0.7,0.1-1.4,0.4-2c0.2-0.6,0.6-1.2,1-1.6c0.4-0.4,0.9-0.8,1.5-1.1c0.6-0.3,1.3-0.4,2-0.4
				c0.8,0,1.5,0.2,2.1,0.5c0.6,0.3,1.1,0.7,1.5,1.3c0.4,0.5,0.7,1.1,0.8,1.8c0.2,0.7,0.2,1.4,0.2,2.1h-6.9
				C214.3,16.3,214.6,16.9,215,17.3 M217.9,12.3c-0.3-0.3-0.8-0.5-1.4-0.5c-0.4,0-0.8,0.1-1,0.2c-0.3,0.1-0.5,0.3-0.7,0.5
				c-0.2,0.2-0.3,0.4-0.4,0.7c-0.1,0.2-0.1,0.4-0.1,0.6h4.3C218.5,13.1,218.2,12.6,217.9,12.3"/>
			<path fill="#124B8E" d="M222.7,10.2c0,0.2,0,0.3,0.1,0.4c0.1,0.1,0.1,0.2,0.2,0.3c0.1,0.1,0.2,0.1,0.3,0.2c0.1,0,0.3,0,0.4,0
				c0.2,0,0.3,0,0.4-0.1c0.1,0,0.2-0.1,0.3-0.1c0.1-0.1,0.1-0.1,0.1-0.2c0-0.1,0-0.1,0-0.2c0-0.2,0-0.3-0.1-0.3
				c-0.1-0.1-0.1-0.1-0.2-0.2c-0.1-0.1-0.3-0.1-0.5-0.1c-0.2,0-0.4-0.1-0.7-0.2c-0.2,0-0.3-0.1-0.4-0.2c-0.1-0.1-0.2-0.2-0.3-0.2
				c-0.1-0.1-0.1-0.2-0.1-0.3c0-0.1,0-0.2,0-0.3c0-0.2,0-0.4,0.1-0.5c0.1-0.1,0.2-0.3,0.3-0.4c0.1-0.1,0.3-0.2,0.5-0.2
				c0.2,0,0.4-0.1,0.5-0.1c0.2,0,0.4,0,0.6,0.1c0.2,0.1,0.3,0.1,0.5,0.2c0.1,0.1,0.3,0.2,0.3,0.4c0.1,0.2,0.1,0.3,0.1,0.6h-0.7
				c0-0.3-0.1-0.4-0.3-0.5C224,8.1,223.8,8,223.6,8c-0.1,0-0.2,0-0.3,0c-0.1,0-0.2,0-0.2,0.1c-0.1,0-0.1,0.1-0.2,0.2
				c0,0.1-0.1,0.2-0.1,0.3c0,0.1,0,0.3,0.1,0.3c0.1,0.1,0.2,0.1,0.3,0.2c0,0,0.1,0,0.2,0c0.1,0,0.2,0.1,0.3,0.1
				c0.1,0,0.2,0.1,0.4,0.1c0.1,0,0.2,0.1,0.3,0.1c0.1,0,0.2,0.1,0.3,0.2c0.1,0.1,0.2,0.2,0.2,0.2c0.1,0.1,0.1,0.2,0.1,0.3
				c0,0.1,0,0.2,0,0.3c0,0.2,0,0.4-0.1,0.6c-0.1,0.2-0.2,0.3-0.4,0.4c-0.1,0.1-0.3,0.2-0.5,0.2c-0.2,0-0.4,0.1-0.6,0.1
				c-0.2,0-0.4,0-0.6-0.1c-0.2-0.1-0.4-0.1-0.5-0.3c-0.1-0.1-0.3-0.3-0.4-0.4c-0.1-0.2-0.1-0.4-0.1-0.6H222.7z"/>
			<polygon fill="#124B8E" points="225.9,7.6 226.8,7.6 227.9,10.7 228,10.7 229,7.6 230,7.6 230,11.6 229.3,11.6 229.3,8.5 
				229.3,8.5 228.2,11.6 227.6,11.6 226.5,8.5 226.5,8.5 226.5,11.6 225.9,11.6 			"/>
		</g>
	</g>
</g>
</svg>
