<?xml version="1.0" encoding="UTF-8"?>
<svg width="192px" height="40px" viewBox="0 0 192 40" version="1.1" xmlns="http://www.w3.org/2000/svg" xmlns:xlink="http://www.w3.org/1999/xlink">
    <!-- Generator: Sketch 46.2 (44496) - http://www.bohemiancoding.com/sketch -->
    <title>Logo</title>
    <desc>Created with Sketch.</desc>
    <defs></defs>
    <g id="Symbols" stroke="none" stroke-width="1" fill="none" fill-rule="evenodd">
        <g id="LRG/Menu_notLoggedIn" transform="translate(-32.000000, -12.000000)" fill="#007EE5">
            <g id="Header">
                <g id="Group-6" transform="translate(32.000000, 12.000000)">
                    <g id="Logo">
                        <g id="logo">
                            <path d="M29.1057051,5.11686481 C29.1228146,5.11650122 29.1397361,5.11631943 29.1568456,5.11631943 C30.4806697,5.11631943 31.4461344,6.089274 31.5542439,7.03695938 L26.6543461,7.03695938 C26.7592593,6.0818205 27.6869326,5.11686481 29.1057051,5.11686481 M29.104389,3.78868728 C26.8158522,3.78868728 25.022927,5.53389728 25.022927,7.76176691 C25.022927,9.70185869 26.5548853,11.7084866 29.1184902,11.7084866 C29.925645,11.7084866 30.6882399,11.4896082 31.3231716,11.075848 C31.8114504,10.7678911 32.2248987,10.3526766 32.5522354,9.84220266 C32.6443635,9.69858642 32.6481238,9.52424721 32.5625763,9.37554078 C32.4759007,9.22483462 32.3179669,9.13484723 32.1402913,9.13484723 L31.5549959,9.13484723 C31.3906695,9.13484723 31.2391282,9.21556319 31.1500084,9.35063517 C30.7053494,10.0239954 30.0029198,10.3799455 29.1184902,10.3799455 C27.9751619,10.3799455 26.7261684,9.63641331 26.6244514,8.25678845 L32.6716259,8.25678845 C32.9333448,8.25678845 33.1491878,8.05445317 33.1529481,7.80576074 C33.1702456,6.67919133 32.7592416,5.67096898 31.9629917,4.88907854 C31.2146861,4.1795416 30.199585,3.78868728 29.104389,3.78868728" id="Fill-1"></path>
                            <path d="M40.9106778,7.71010142 C40.9371881,8.39964116 40.6803576,9.0419148 40.1868143,9.51912066 C39.7060561,9.99759906 39.0288207,10.2719243 38.3288353,10.2719243 C36.6329266,10.2719243 35.7323276,9.00228399 35.7191664,7.7479143 L35.7191664,7.73500702 C35.7191664,6.30393483 36.8410608,5.22499511 38.3288353,5.22499511 C39.0340852,5.22499511 39.6842462,5.47805056 40.160116,5.93853149 C40.6440704,6.39264967 40.9106778,7.02110706 40.9106778,7.71010142 M41.9291631,1.35226506 L41.3079566,1.35226506 C41.0426654,1.35226506 40.8268224,1.56114488 40.8268224,1.81765439 L40.8268224,5.04883797 C40.4440209,4.50909542 39.5488743,3.78865092 38.0768932,3.78865092 C35.8299081,3.78865092 34.1355035,5.48514047 34.1355035,7.73500702 C34.1355035,10.0374117 35.8049019,11.7084502 38.1049077,11.7084502 C39.6940231,11.7084502 40.5013659,10.9431029 40.8826633,10.3708195 L40.8826633,11.0265458 C40.8826633,11.2830553 41.0985063,11.4917533 41.3639856,11.4917533 L41.9291631,11.4917533 C42.1946424,11.4917533 42.4104853,11.2830553 42.4104853,11.0265458 L42.4104853,1.81765439 C42.4104853,1.56114488 42.1946424,1.35226506 41.9291631,1.35226506" id="Fill-3"></path>
                            <path d="M52.9720486,3.78868728 C52.1694062,3.78868728 51.437458,4.06919343 50.9110118,4.57821301 C50.6831358,4.79854577 50.5389272,5.012334 50.4099478,5.22830373 C50.4082557,5.22521326 50.4065635,5.22230458 50.4046834,5.2192141 C50.3020264,5.04396593 50.1301793,4.75073429 49.9684851,4.59421077 C49.3596877,3.92848588 48.5404999,3.78868728 47.960657,3.78868728 C46.9175415,3.78868728 46.1053102,4.32388501 45.7148,4.88235221 L45.7148,4.47040994 C45.7148,4.21390043 45.498769,4.0050206 45.2334778,4.0050206 L44.6963147,4.0050206 C44.4310234,4.0050206 44.2149924,4.21390043 44.2149924,4.47040994 L44.2149924,11.0264004 C44.2149924,11.2830917 44.4310234,11.4917897 44.6963147,11.4917897 L45.3175211,11.4917897 C45.5828124,11.4917897 45.7988434,11.2830917 45.7988434,11.0264004 L45.7988434,7.39672715 C45.7988434,6.78990309 45.931395,6.2961541 46.1955582,5.92602415 C46.4700622,5.48372249 46.991244,5.22684939 47.5814277,5.23848413 C48.2182396,5.25066424 48.6726755,5.48026843 48.9697415,5.93947681 C49.1968654,6.30560732 49.283541,6.71954932 49.2684997,7.36945825 L49.2684997,11.0264004 C49.2684997,11.2830917 49.4843427,11.4917897 49.7498219,11.4917897 L50.3849416,11.4917897 C50.6504209,11.4917897 50.8662639,11.2830917 50.8662639,11.0264004 L50.8662639,7.36945825 C50.8662639,6.7273664 50.9170283,6.3459653 51.2067617,5.91257149 C51.471489,5.49044882 52.0005674,5.23848413 52.6221499,5.23848413 C53.2335795,5.23848413 53.6481559,5.42336731 53.9292405,5.82367485 C54.2067529,6.16980817 54.3359202,6.67828237 54.3359202,7.42345068 L54.3359202,11.0264004 C54.3359202,11.2830917 54.5517632,11.4917897 54.8172424,11.4917897 L55.4382609,11.4917897 C55.7037402,11.4917897 55.9195831,11.2830917 55.9195831,11.0264004 L55.9195831,7.36945825 C55.9195831,5.8773037 55.7110728,5.19249057 55.0616639,4.55167128 C54.3919491,3.88776431 53.4650278,3.78868728 52.9720486,3.78868728" id="Fill-5"></path>
                            <path d="M64.1182491,4.00507514 L63.4970426,4.00507514 C63.2317513,4.00507514 63.0159084,4.21377317 63.0159084,4.47046447 L63.0159084,8.1817626 C63.0159084,9.51721183 62.2976854,10.2596533 60.993791,10.2720152 C59.6895206,10.2720152 59.0280786,9.52757402 59.0280786,8.05977969 L59.0280786,4.47046447 C59.0280786,4.21377317 58.8122357,4.00507514 58.5467564,4.00507514 L57.9257379,4.00507514 C57.6602586,4.00507514 57.4444157,4.21377317 57.4444157,4.47046447 L57.4444157,8.38446147 C57.4444157,11.2615129 59.4137004,11.7019966 60.5872994,11.7085411 C60.6019647,11.7085411 60.6164419,11.7087229 60.6311072,11.7087229 C61.7481132,11.7087229 62.6314147,11.2873274 63.0997638,10.5403412 L63.0997638,11.0264549 C63.0997638,11.2829644 63.3156067,11.4918442 63.581086,11.4918442 L64.1182491,11.4918442 C64.3835404,11.4918442 64.5993833,11.2829644 64.5993833,11.0264549 L64.5993833,4.47046447 C64.5993833,4.21377317 64.3835404,4.00507514 64.1182491,4.00507514" id="Fill-7"></path>
                            <path d="M70.3880915,3.78868728 C69.2496516,3.77796151 68.3499927,4.19972059 67.8756271,4.95652364 L67.8756271,4.47040994 C67.8756271,4.21390043 67.6597842,4.0050206 67.3943049,4.0050206 L66.8571418,4.0050206 C66.5918505,4.0050206 66.3760075,4.21390043 66.3760075,4.47040994 L66.3760075,11.0264004 C66.3760075,11.2830917 66.5918505,11.4917897 66.8571418,11.4917897 L67.4783482,11.4917897 C67.7436395,11.4917897 67.9594824,11.2830917 67.9594824,11.0264004 L67.9594824,7.32873668 C67.9594824,5.99328745 68.6778935,5.25084603 69.9821639,5.23848413 C70.5695274,5.23103063 71.0393806,5.38646339 71.3608888,5.69442024 C71.7406821,6.05836924 71.933399,6.64465072 71.933399,7.43708513 L71.933399,11.0264004 C71.933399,11.2830917 72.149242,11.4917897 72.4145332,11.4917897 L73.049841,11.4917897 C73.3151322,11.4917897 73.5309752,11.2830917 73.5309752,11.0264004 L73.5309752,7.11240336 C73.5309752,4.25062255 71.5620665,3.80159457 70.3880915,3.78868728" id="Fill-9"></path>
                            <path d="M81.6206668,7.71010142 C81.6471771,8.39964116 81.3903466,9.0419148 80.8969913,9.51912066 C80.4160451,9.99759906 79.7388097,10.2719243 79.0388243,10.2719243 C77.3429155,10.2719243 76.4423165,9.00228399 76.4291554,7.7479143 L76.4291554,7.73500702 C76.4291554,6.30393483 77.5510498,5.22499511 79.0388243,5.22499511 C79.7440742,5.22499511 80.3942352,5.47805056 80.8701049,5.93853149 C81.3540594,6.39264967 81.6206668,7.02110706 81.6206668,7.71010142 M82.6391521,1.35226506 L82.0179456,1.35226506 C81.7526544,1.35226506 81.5368114,1.56114488 81.5368114,1.81765439 L81.5368114,5.04883797 C81.1540098,4.50909542 80.2588633,3.78865092 78.7868822,3.78865092 C76.5398971,3.78865092 74.8454925,5.48514047 74.8454925,7.73500702 C74.8454925,10.0374117 76.5148909,11.7084502 78.8148967,11.7084502 C80.4040121,11.7084502 81.2113549,10.9431029 81.5926523,10.3708195 L81.5926523,11.0265458 C81.5926523,11.2830553 81.8084952,11.4917533 82.0739745,11.4917533 L82.6391521,11.4917533 C82.9046314,11.4917533 83.1204743,11.2830553 83.1204743,11.0265458 L83.1204743,1.81765439 C83.1204743,1.56114488 82.9046314,1.35226506 82.6391521,1.35226506" id="Fill-11"></path>
                            <path d="M87.5887427,6.96736914 L87.5535836,6.95791591 C86.7689908,6.74849072 86.2408524,6.49616244 86.2147182,5.94642129 C86.2081376,5.7217255 86.293309,5.5097552 86.4540631,5.34977762 C86.6430197,5.16198576 86.9158317,5.06254514 87.2437324,5.06254514 C87.2548254,5.06236335 87.2659184,5.06218156 87.2768233,5.06218156 C87.7948088,5.06218156 88.139819,5.29014961 88.2496206,5.70645491 C88.3032053,5.90915378 88.4938541,6.0507703 88.7134573,6.0507703 L89.3034531,6.0507703 C89.4536783,6.0507703 89.5928105,5.98477955 89.6849386,5.86952297 C89.7766906,5.75499357 89.8079013,5.60919582 89.7706741,5.46939722 C89.439577,4.23029813 88.2548851,3.78872364 87.2567056,3.78872364 C85.7350881,3.78872364 84.6308672,4.75386113 84.6308672,6.08440195 C84.6464726,7.32277388 85.688272,7.78616349 86.5926313,8.05085367 C87.9625195,8.48788334 88.481257,8.71748753 88.4946061,9.39957377 C88.4946061,9.97985609 87.9754926,10.4343379 87.3125465,10.4343379 C86.8551023,10.4343379 86.258338,10.2149141 86.0817905,9.59627348 C86.0216252,9.38521215 85.8351129,9.24323204 85.6179538,9.24323204 L85.0016357,9.24323204 C84.8542308,9.24323204 84.7169788,9.30740487 84.6252267,9.41920738 C84.5325346,9.53173707 84.4988796,9.67698944 84.5325346,9.81733341 C84.8463341,11.1236958 86.1479723,11.708523 87.2986332,11.708523 C88.1208294,11.708523 88.8869966,11.4180182 89.4012217,10.9115437 C89.8567856,10.4626975 90.0910542,9.88332417 90.0782691,9.23559675 C90.0354013,7.62236826 88.7356433,7.27441702 87.5887427,6.96736914" id="Fill-13"></path>
                            <path d="M15.2521987,2.21792557 L13.3440193,2.21792557 C12.9089491,2.21792557 12.5573583,2.49315973 12.5573583,2.8329303 L12.5573583,3.83624426 C12.5573583,3.90114425 12.5573583,3.96586246 12.5908252,4.03058066 C12.9926165,3.56119189 13.6119428,3.25378042 14.298203,3.25378042 C14.7988909,3.25378042 15.6037895,3.54501234 16.0053928,4.01440111 C16.0221262,3.96586246 16.0388597,3.90114425 16.0388597,3.83624426 L16.0388597,2.8329303 C16.0388597,2.49315973 15.6874569,2.21792557 15.2521987,2.21792557" id="Fill-15"></path>
                            <path d="M11.2165751,10.4823857 C10.9907673,10.5234708 10.7658996,10.5469221 10.542724,10.5547392 C10.3199244,10.5469221 10.0948687,10.5234708 9.86906089,10.4823857 C8.24854674,10.1873361 6.99109244,9.08385438 6.43606776,7.66750739 C7.2208486,8.53065917 8.78514581,8.97805102 10.542724,8.99713925 C12.3004902,8.97805102 13.8647874,8.53065917 14.6495682,7.66750739 C14.0945435,9.08385438 12.8370892,10.1873361 11.2165751,10.4823857 L11.2165751,10.4823857 Z M5.08272504,3.07851407 L5.08272504,4.08200982 C5.08272504,4.19563026 5.12427669,4.30107003 5.19309073,4.39232997 C4.57395242,4.45032184 3.98339261,4.53067422 3.43006008,4.64393108 C3.72618605,3.91221543 4.35002477,2.73783454 5.09062174,1.99775642 C5.2212932,1.873592 5.73119393,1.4323811 6.49510494,1.30258111 C6.86718957,1.24713433 8.2002265,1.05461586 10.2723563,1.05461586 L10.5560732,1.05461586 L10.83979,1.05461586 C12.9119198,1.05461586 14.2451448,1.24713433 14.6170414,1.30258111 C15.3809524,1.4323811 15.8908531,1.873592 16.0215246,1.99775642 C16.7621215,2.73783454 17.3859603,3.91221543 17.6820862,4.64393108 C16.505667,4.40305574 15.1654855,4.3068874 13.7245271,4.27143782 C13.5654651,4.26798376 13.1300189,4.25889412 12.7257835,4.25362213 L12.3350852,4.25362213 C12.0372671,4.25253138 11.7362527,4.25253138 11.432418,4.25362213 L10.5560732,4.25362213 L9.67972828,4.25362213 C9.37589363,4.25253138 9.07506724,4.25253138 8.7770611,4.25362213 L8.53207561,4.25362213 C8.55238139,4.19908432 8.56422643,4.14163782 8.56422643,4.08200982 L8.56422643,3.07851407 C8.56422643,2.7387435 8.21282361,2.46350934 7.77756543,2.46350934 L5.86938605,2.46350934 C5.43431589,2.46350934 5.08272504,2.7387435 5.08272504,3.07851407 L5.08272504,3.07851407 Z M16.8719232,9.54506247 C16.2633138,9.48670702 15.7710866,9.0109555 15.7107333,8.42249251 C15.6291342,7.6273312 16.3148303,6.9643332 17.1372144,7.04323123 C17.7458238,7.10158669 18.238051,7.57752 18.2982163,8.16598299 C18.3796274,8.96096251 17.6943073,9.62377872 16.8719232,9.54506247 L16.8719232,9.54506247 Z M3.97211162,9.54506247 C3.36350224,9.48670702 2.87127506,9.0109555 2.81092177,8.42249251 C2.72932261,7.6273312 3.41501876,6.9643332 4.2374029,7.04323123 C4.84601228,7.10158669 5.33823946,7.57752 5.39840474,8.16598299 C5.47981588,8.96096251 4.79449576,9.62377872 3.97211162,9.54506247 L3.97211162,9.54506247 Z M21.0699554,3.91585128 C21.0616827,3.62316502 20.80316,3.39610593 20.5002654,3.40410481 L19.2892512,3.43646391 C19.0166273,3.44373562 18.7992802,3.64697987 18.7646852,3.90094428 C18.7566005,3.95893615 18.7432513,4.01620086 18.727834,4.07273839 L18.591522,3.81295661 C18.0976027,2.93017122 17.4229995,1.86904719 16.7452,1.20077719 L16.7457641,1.20077719 C16.7457641,1.20077719 16.1501279,0.494694316 14.9562231,0.261090687 C14.9539669,0.260727101 14.9518987,0.260363516 14.9496425,0.259999931 C13.9097233,0.0454845355 12.2158827,-0.00978044767 10.5560732,0.0013089075 C8.89626356,-0.00978044767 7.20242298,0.0454845355 6.16250376,0.259999931 C6.16024756,0.260363516 6.15817938,0.260727101 6.15592318,0.261090687 C4.96201846,0.494694316 4.36638221,1.20077719 4.36638221,1.20077719 L4.36694626,1.20077719 C3.6891468,1.86904719 3.01454363,2.93017122 2.5206243,3.81295661 L2.36757888,4.1049157 C2.34783715,4.0376524 2.33053963,3.97002551 2.32095079,3.90094428 C2.28635575,3.64697987 2.06900869,3.44373562 1.79638477,3.43646391 L0.585370547,3.40410481 C0.282475978,3.39610593 0.0239533011,3.62316502 0.0156805755,3.91585128 L0.000263223088,4.48595321 C-0.00819751907,4.77882127 0.22663508,5.02878624 0.529529649,5.03678512 L1.81631452,5.18094673 L1.83210791,5.15604113 C1.82270708,5.17712909 1.81368229,5.19730808 1.8057856,5.21512376 C1.37992824,5.68633046 1.12159358,6.23843492 1.04525889,6.68019119 C0.905938667,7.13939957 0.828099839,7.72422671 0.828099839,8.47266729 C0.828099839,9.54597144 1.13118242,11.0094027 1.20394481,11.7225755 L1.20394481,12.7849721 C1.20394481,13.3147161 1.64803976,13.7439286 2.1957318,13.7439286 L3.54192989,13.7439286 C4.08980995,13.7439286 4.53371689,13.3147161 4.53371689,12.7849721 L4.53371689,11.9952646 C5.94421661,11.8700094 8.2445984,11.8274699 10.5560732,11.8236523 C12.8675479,11.8274699 15.1679297,11.8700094 16.5784294,11.9952646 L16.5784294,12.7849721 C16.5784294,13.3147161 17.0223364,13.7439286 17.5702164,13.7439286 L18.9164145,13.7439286 C19.4641065,13.7439286 19.9082015,13.3147161 19.9082015,12.7849721 L19.9082015,11.7225755 C19.9809639,11.0094027 20.2840465,9.54597144 20.2840465,8.47266729 C20.2840465,6.81053657 19.6453544,5.63833719 19.3063607,5.21512376 C19.3014723,5.2042162 19.2954558,5.19094533 19.2900033,5.17876522 L20.5561063,5.03678512 C20.8590009,5.02878624 21.0938335,4.77882127 21.0853728,4.48595321 L21.0699554,3.91585128 Z" id="Fill-17"></path>
                        </g>
                        <path fill="#4F514F" d="M12.274843,36.1170143 L12.274843,20.6060606 L9.47457864,20.6060606 L9.47457864,25.5175128 C8.65344849,24.614981 7.30595286,24.0692641 5.83212952,24.0692641 C2.56866354,24.0692641 -1.15463195e-14,26.7978486 -1.15463195e-14,30.2820412 C-1.15463195e-14,33.7242555 2.54760892,36.3898728 5.85318414,36.3898728 C7.43228058,36.3898728 8.59028464,35.865145 9.70617945,34.6057982 L9.70617945,36.1170143 L12.274843,36.1170143 Z M9.68512483,30.240063 C9.68512483,32.2550177 8.19024687,33.8292011 6.29533114,33.8292011 C4.33725156,33.8292011 2.82131897,32.2130395 2.82131897,30.1561065 C2.82131897,28.18313 4.31619694,26.6299357 6.23216729,26.6299357 C8.19024687,26.6299357 9.68512483,28.2041191 9.68512483,30.240063 Z M26.0656186,30.4709432 C26.0656186,26.860816 23.5180097,24.2161879 20.0439975,24.2161879 C16.6120946,24.2161879 13.8960487,26.9237833 13.8960487,30.3450085 C13.8960487,33.7452447 16.6542038,36.3898728 20.2124344,36.3898728 C22.5705518,36.3898728 24.991833,35.0675587 25.7708539,32.6747999 L22.7179341,32.6747999 C22.0020771,33.5143644 21.3072746,33.8292011 20.1492706,33.8292011 C18.4859557,33.8292011 17.2647877,32.9476584 16.9279138,31.5413879 L25.9603455,31.5413879 C26.044564,31.1425948 26.0656186,30.8907254 26.0656186,30.4709432 Z M23.3074635,29.0856618 L16.8436954,29.0856618 C17.2858424,27.5954349 18.4227918,26.7768595 20.0861067,26.7768595 C21.8125855,26.7768595 22.9495349,27.5954349 23.3074635,29.0856618 Z M38.3825708,24.4890463 L35.2243779,24.4890463 L32.5714959,32.1920504 L29.8765047,24.4890463 L26.760421,24.4890463 L31.4556011,36.1170143 L33.6873907,36.1170143 L38.3825708,24.4890463 Z M51.3311616,30.4709432 C51.3311616,26.860816 48.7835527,24.2161879 45.3095405,24.2161879 C41.8776376,24.2161879 39.1615917,26.9237833 39.1615917,30.3450085 C39.1615917,33.7452447 41.9197468,36.3898728 45.4779775,36.3898728 C47.8360948,36.3898728 50.257376,35.0675587 51.036397,32.6747999 L47.9834772,32.6747999 C47.2676201,33.5143644 46.5728177,33.8292011 45.4148136,33.8292011 C43.7514987,33.8292011 42.5303308,32.9476584 42.1934569,31.5413879 L51.2258885,31.5413879 C51.310107,31.1425948 51.3311616,30.8907254 51.3311616,30.4709432 Z M48.5730065,29.0856618 L42.1092384,29.0856618 C42.5513854,27.5954349 43.6883349,26.7768595 45.3516498,26.7768595 C47.0781285,26.7768595 48.215078,27.5954349 48.5730065,29.0856618 Z M55.9421232,36.1170143 L55.9421232,20.6060606 L53.1418589,20.6060606 L53.1418589,36.1170143 L55.9421232,36.1170143 Z M70.0908273,30.3869868 C70.0908273,26.9237833 67.3747815,24.2161879 63.8586601,24.2161879 C60.4688664,24.2161879 57.6896566,26.9657615 57.6896566,30.3030303 C57.6896566,33.6612882 60.4688664,36.3898728 63.8797147,36.3898728 C67.2695084,36.3898728 70.0908273,33.6612882 70.0908273,30.3869868 Z M67.2695084,30.3030303 C67.2695084,32.2550177 65.7535758,33.8292011 63.9007693,33.8292011 C62.0058536,33.8292011 60.5109756,32.2550177 60.5109756,30.2610521 C60.5109756,28.3510429 62.0479628,26.7768595 63.8797147,26.7768595 C65.7535758,26.7768595 67.2695084,28.372032 67.2695084,30.3030303 Z M83.8816029,30.2610521 C83.8816029,26.7558704 81.4392671,24.2161879 78.070528,24.2161879 C76.4914316,24.2161879 75.1439359,24.803883 74.2385873,25.8533386 L74.2385873,24.4890463 L71.6699238,24.4890463 L71.6699238,40 L74.4701881,40 L74.4701881,35.0255805 C75.5229191,35.9700905 76.6177593,36.3898728 78.0494734,36.3898728 C81.4182125,36.3898728 83.8816029,33.7872229 83.8816029,30.2610521 Z M81.0602839,30.3240194 C81.0602839,32.2969959 79.6075152,33.8292011 77.7547087,33.8292011 C75.7755745,33.8292011 74.3017512,32.317985 74.3017512,30.2820412 C74.3017512,28.2880756 75.7755745,26.7768595 77.7125995,26.7768595 C79.6075152,26.7768595 81.0602839,28.3090647 81.0602839,30.3240194 Z M97.2302315,30.4709432 C97.2302315,26.860816 94.6826226,24.2161879 91.2086104,24.2161879 C87.7767075,24.2161879 85.0606616,26.9237833 85.0606616,30.3450085 C85.0606616,33.7452447 87.8188167,36.3898728 91.3770474,36.3898728 C93.7351647,36.3898728 96.1564459,35.0675587 96.9354668,32.6747999 L93.882547,32.6747999 C93.16669,33.5143644 92.4718876,33.8292011 91.3138835,33.8292011 C89.6505686,33.8292011 88.4294007,32.9476584 88.0925268,31.5413879 L97.1249584,31.5413879 C97.2091769,31.1425948 97.2302315,30.8907254 97.2302315,30.4709432 Z M94.4720764,29.0856618 L88.0083083,29.0856618 C88.4504553,27.5954349 89.5874047,26.7768595 91.2507196,26.7768595 C92.9771984,26.7768595 94.1141479,27.5954349 94.4720764,29.0856618 Z M104.346693,26.9027942 L104.346693,24.2161879 L104.136147,24.2161879 C102.936033,24.2161879 102.346504,24.5520136 101.609592,25.6224583 L101.609592,24.4890463 L99.0409287,24.4890463 L99.0409287,36.1170143 L101.841193,36.1170143 L101.841193,29.6523678 C101.841193,27.8473042 102.662323,26.9447724 104.346693,26.9027942 Z M122.032573,36.1170143 L122.032573,29.8832481 C122.032573,27.805326 121.822027,26.7978486 121.190388,25.8953168 C120.432422,24.803883 119.169145,24.2161879 117.547939,24.2161879 C116.221498,24.2161879 115.295095,24.614981 114.263418,25.6014692 L114.263418,24.4890463 L111.6737,24.4890463 L111.6737,36.1170143 L114.473965,36.1170143 L114.473965,30.6388561 C114.473965,29.0856618 114.579238,28.4140102 114.937166,27.8473042 C115.379313,27.1546635 116.116225,26.7768595 117.000519,26.7768595 C118.390124,26.7768595 119.232309,27.3225764 119.232309,30.428965 L119.232309,36.1170143 L122.032573,36.1170143 Z M135.970731,30.4709432 C135.970731,26.860816 133.423122,24.2161879 129.94911,24.2161879 C126.517207,24.2161879 123.801161,26.9237833 123.801161,30.3450085 C123.801161,33.7452447 126.559316,36.3898728 130.117547,36.3898728 C132.475664,36.3898728 134.896945,35.0675587 135.675966,32.6747999 L132.623046,32.6747999 C131.907189,33.5143644 131.212387,33.8292011 130.054383,33.8292011 C128.391068,33.8292011 127.1699,32.9476584 126.833026,31.5413879 L135.865458,31.5413879 C135.949676,31.1425948 135.970731,30.8907254 135.970731,30.4709432 Z M133.212576,29.0856618 L126.748808,29.0856618 C127.190955,27.5954349 128.327904,26.7768595 129.991219,26.7768595 C131.717698,26.7768595 132.854647,27.5954349 133.212576,29.0856618 Z M142.687154,27.0287288 L142.687154,24.4890463 L141.002785,24.4890463 L141.002785,20.6060606 L138.20252,20.6060606 L138.20252,24.4890463 L136.83397,24.4890463 L136.83397,27.0287288 L138.20252,27.0287288 L138.20252,36.1170143 L141.002785,36.1170143 L141.002785,27.0287288 L142.687154,27.0287288 Z M159.48874,24.4890463 L156.498985,24.4890463 L154.372468,31.5833661 L152.456498,24.4890463 L150.224708,24.4890463 L148.266628,31.5833661 L146.182221,24.4890463 L143.171411,24.4890463 L147.340225,36.1170143 L149.066704,36.1170143 L151.319548,28.5819231 L153.530283,36.1170143 L155.277817,36.1170143 L159.48874,24.4890463 Z M172.837369,30.3869868 C172.837369,26.9237833 170.121323,24.2161879 166.605202,24.2161879 C163.215408,24.2161879 160.436198,26.9657615 160.436198,30.3030303 C160.436198,33.6612882 163.215408,36.3898728 166.626256,36.3898728 C170.01605,36.3898728 172.837369,33.6612882 172.837369,30.3869868 Z M170.01605,30.3030303 C170.01605,32.2550177 168.500118,33.8292011 166.647311,33.8292011 C164.752395,33.8292011 163.257517,32.2550177 163.257517,30.2610521 C163.257517,28.3510429 164.794505,26.7768595 166.626256,26.7768595 C168.500118,26.7768595 170.01605,28.372032 170.01605,30.3030303 Z M179.72223,26.9027942 L179.72223,24.2161879 L179.511683,24.2161879 C178.31157,24.2161879 177.722041,24.5520136 176.985129,25.6224583 L176.985129,24.4890463 L174.416466,24.4890463 L174.416466,36.1170143 L177.21673,36.1170143 L177.21673,29.6523678 C177.21673,27.8473042 178.03786,26.9447724 179.72223,26.9027942 Z M191.702308,36.1170143 L186.859745,30.1770956 L191.02856,24.4890463 L187.680876,24.4890463 L183.954208,29.9672045 L183.954208,20.6060606 L181.153944,20.6060606 L181.153944,36.1170143 L183.954208,36.1170143 L183.954208,30.6808343 L187.933531,36.1170143 L191.702308,36.1170143 Z" id="developer-network"></path>
                    </g>
                </g>
            </g>
        </g>
    </g>
</svg>